Title: Oliver Sherman

Country: Canada, 2010

Language: English

No Subtitle


Director: Ryan Redford

Writers: Rachel Ingalls (short story "Veterans"), Ryan Redford (screenplay)

Stars: Garret Dillahunt, Donal Logue and Molly Parker 

Plot: Feeling lost and disconnected, with no family of his own, veteran Sherman Oliver sets out to the countryside in search of the soldier who saved him back in the war. That man, Franklin Page, has long since moved on - to a wife, two children, and a reliable job in a reliably safe and quiet rural town. Upon arriving, Sherman seems at first a harmless if awkward shell of a man. But as he inserts himself further into the Pages' life, he reveals himself to be an angry, unstable individual prone to great jealousy and deep resentment. The stability Franklin worked so hard to establish is soon threatened, and the violence he believed he'd left behind in the war begins to re-emerge and cloud over both the household and the town itself. 


Imdb: 
http://www.imdb.com/title/tt1503149/

Rip Specs:

General
Complete name                    : Oliver.Sherman.2010.DVDRip.AC3.HORiZON-ArtSubs
Format                           : AVI
Format/Info                      : Audio Video Interleave
File size                        : 1.37 GiB
Duration                         : 1h 19mn
Overall bit rate                 : 2 461 Kbps
Writing application              : FairUse Wizard - http://fairusewizard.com
Writing library                  : The best and REALLY easy backup tool

Video
ID                               : 0
Format                           : AVC
Format/Info                      : Advanced Video Codec
Format profile                   : Main@L3.0
Format settings, CABAC           : Yes
Format settings, ReFrames        : 2 frames
Codec ID                         : H264
Duration                         : 1h 19mn
Bit rate                         : 2 261 Kbps
Width                            : 696 pixels
Height                           : 304 pixels
Display aspect ratio             : 2.25:1
Frame rate                       : 25.000 fps
Color space                      : YUV
Chroma subsampling               : 4:2:0
Bit depth                        : 8 bits
Scan type                        : Progressive
Bits/(Pixel*Frame)               : 0.427
Stream size                      : 1.25 GiB (92%)
Writing library                  : x264 core 93 r1538bm bd72d46
Encoding settings                : cabac=1 / ref=1 / deblock=1:0:0 / analyse=0x1:0x131 / me=hex / subme=4 / psy=1 / psy_rd=0.00:0.00 / mixed_ref=0 / me_range=16 / chroma_me=0 / trellis=1 / 8x8dct=0 / cqm=0 / deadzone=21,11 / fast_pskip=1 / chroma_qp_offset=0 / threads=2 / sliced_threads=1 / slices=2 / nr=0 / decimate=1 / interlaced=0 / constrained_intra=0 / bframes=2 / b_pyramid=0 / b_adapt=1 / b_bias=0 / direct=1 / wpredb=1 / wpredp=2 / keyint=250 / keyint_min=25 / scenecut=40 / intra_refresh=0 / rc=2pass / mbtree=0 / bitrate=2261 / ratetol=1.0 / qcomp=0.60 / qpmin=10 / qpmax=51 / qpstep=4 / cplxblur=20.0 / qblur=0.5 / ip_ratio=1.40 / pb_ratio=1.30 / aq=1:1.00

Audio
ID                               : 1
Format                           : AC-3
Format/Info                      : Audio Coding 3
Mode extension                   : CM (complete main)
Codec ID                         : 2000
Duration                         : 1h 19mn
Bit rate mode                    : Constant
Bit rate                         : 192 Kbps
Channel(s)                       : 2 channels
Channel positions                : Front: L R
Sampling rate                    : 48.0 KHz
Bit depth                        : 16 bits
Compression mode                 : Lossy
Stream size                      : 109 MiB (8%)
Alignment                        : Split accross interleaves
Interleave, duration             : 40 ms (1.00 video frame)
Interleave, preload duration     : 500 ms

